<svg xmlns="http://www.w3.org/2000/svg" width="24" height="24" viewBox="0 0 24 24" fill="none" stroke="#0073FF" stroke-width="2" stroke-linecap="round" stroke-linejoin="round">
  <path d="M13 2H4a2 2 0 0 0-2 2v16a2 2 0 0 0 2 2h16a2 2 0 0 0 2-2v-9"></path>
  <path d="M13 15.5V17a4 4 0 0 1-4 4H8.5a4 4 0 0 1-4-4v-1.5a4 4 0 0 1 4-4H10"></path>
  <path d="M15 10V7a4 4 0 0 1 4-4h1.5a4 4 0 0 1 4 4v1.5a4 4 0 0 1-4 4H18"></path>
  <path d="M9 12a2 2 0 0 0 2 2h2a2 2 0 0 0 2-2 2 2 0 0 0-2-2h-2a2 2 0 0 1-2-2 2 2 0 0 1 2-2h2a2 2 0 0 1 2 2"></path>
</svg>